<?xml version="1.0" encoding="UTF-8" standalone="no"?>
<!-- Created with Inkscape (http://www.inkscape.org/) -->

<svg
   width="160.14529mm"
   height="145.52803mm"
   viewBox="0 0 160.14529 145.52803"
   version="1.1"
   id="svg1"
   xml:space="preserve"
   xmlns="http://www.w3.org/2000/svg"
   xmlns:svg="http://www.w3.org/2000/svg"><defs
     id="defs1" /><g
     id="layer1"
     transform="translate(-24.927348,-59.523718)"><path
       style="fill:#000000"
       d="m 78.804355,204.91375 c -1.191384,-0.30855 -1.894196,-0.69898 -2.66422,-1.48004 -1.25837,-1.2764 -1.794324,-2.89083 -1.791093,-5.39523 0.0039,-3.03065 1.105829,-5.10404 3.282373,-6.17616 0.791477,-0.38987 1.010001,-0.42353 2.736859,-0.42156 1.641282,0.002 1.959535,0.0461 2.537019,0.35284 1.035975,0.55022 1.746321,1.26151 2.243578,2.24657 0.704297,1.39521 0.68258,1.43855 -0.917451,1.83095 -0.75679,0.1856 -1.478148,0.33674 -1.603017,0.33586 -0.124869,-8.7e-4 -0.341975,-0.27537 -0.482456,-0.60999 -0.328338,-0.78209 -0.876299,-1.13479 -1.763018,-1.13479 -0.994842,0 -1.590527,0.40749 -2.093873,1.43236 -0.364665,0.7425 -0.423053,1.05564 -0.423053,2.26891 0,1.25114 0.05213,1.51179 0.469176,2.34588 0.406146,0.81229 0.566398,0.97794 1.192872,1.23304 0.973407,0.39636 1.755513,0.24741 2.424318,-0.46173 0.275646,-0.29227 0.547809,-0.74373 0.604807,-1.00324 0.06323,-0.28788 0.202344,-0.47183 0.356821,-0.47183 0.22189,0 2.867233,0.75645 2.965408,0.84797 0.09804,0.0914 -0.543856,1.50665 -1.007307,2.22089 -0.572461,0.88224 -1.405897,1.53508 -2.394625,1.87572 -0.931942,0.32108 -2.752016,0.40214 -3.673118,0.16358 z m 68.628545,-0.16388 c -1.82336,-0.59379 -3.18544,-2.1349 -3.7479,-4.24052 -0.27853,-1.04269 -0.26421,-3.35845 0.0284,-4.60001 0.73539,-3.11986 2.90033,-4.68899 6.22918,-4.51487 2.19619,0.11487 3.52882,0.81294 4.58306,2.40073 1.82865,2.75416 1.42097,7.53462 -0.81861,9.599 -1.17658,1.08453 -2.21493,1.47493 -4.0572,1.52545 -1.00601,0.0276 -1.79689,-0.033 -2.21698,-0.16978 z m 3.22813,-3.14394 c 1.05563,-0.54845 1.74594,-2.54766 1.4587,-4.22458 -0.34301,-2.00247 -1.19535,-2.97128 -2.61406,-2.97128 -1.57966,0 -2.43518,1.15645 -2.56069,3.4614 -0.17005,3.123 1.5554,4.857 3.71605,3.73446 z m -102.118302,-3.40336 2.05e-4,-6.60756 h 4.84803 4.848031 l -8.6e-5,1.44663 -8.7e-5,1.44662 h -2.971446 -2.971446 v 1.01655 1.01655 h 2.815054 2.815054 v 1.40752 1.40753 h -2.803145 -2.803145 l -0.05101,1.2515 -0.05101,1.25151 3.245131,-3.7e-4 3.245132,-3.7e-4 v 1.48572 1.48573 h -5.082736 -5.082737 z m 12.23576,0.0319 0.0408,-6.58631 1.642115,-0.003 1.642115,-0.003 1.528729,2.40074 c 0.840801,1.3204 1.82607,2.9101 2.189487,3.53265 0.363416,0.62256 0.695945,1.13285 0.738953,1.13398 0.04301,0.001 0.05526,-1.58148 0.02722,-3.5169 l -0.05098,-3.51895 h 1.65571 1.65571 l -0.04081,6.52936 -0.04081,6.52936 -1.494006,0.0444 -1.494005,0.0444 -2.150319,-3.45453 c -1.182676,-1.89998 -2.189341,-3.55621 -2.237034,-3.6805 -0.238681,-0.62199 -0.298779,0.0762 -0.293547,3.41014 l 0.0057,3.63611 -1.682914,0.0444 -1.682913,0.0444 z m 27.174583,-0.0319 -2.1e-4,-6.60756 4.1055,0.0782 c 4.55976,0.0868 4.67544,0.11139 5.55502,1.17847 0.81589,0.98982 1.07328,2.75527 0.57564,3.94839 -0.29622,0.7102 -1.04983,1.51233 -1.65725,1.76393 -0.30186,0.12504 -0.40448,0.24496 -0.31006,0.36236 0.2392,0.29743 3.14818,5.61274 3.14818,5.75237 0,0.0723 -0.86402,0.1314 -1.92005,0.1314 h -1.92005 l -1.37621,-2.65867 -1.37621,-2.65866 h -0.69173 -0.69174 v 2.65866 2.65867 h -1.72031 -1.72031 z m 6.49031,-1.69204 c 0.13488,-0.13498 0.28469,-0.48849 0.3329,-0.78558 0.17168,-1.05795 -0.86012,-1.63979 -2.56132,-1.44434 l -0.82106,0.0943 v 1.24517 1.24516 l 1.40212,-0.0547 c 1.00862,-0.0393 1.47094,-0.12353 1.64736,-0.30007 z m 9.618269,5.54355 v -2.75605 l -2.34588,-3.75104 c -1.29023,-2.06307 -2.345659,-3.79625 -2.345379,-3.85151 2.7e-4,-0.0553 0.887009,-0.0976 1.970509,-0.0942 l 1.97001,0.006 1.1549,1.94865 c 0.6352,1.07175 1.156,2.04247 1.15733,2.15716 0.005,0.47137 0.36342,8.3e-4 1.46727,-1.92883 l 1.16301,-2.0331 1.9058,-0.0782 c 1.04819,-0.043 1.92957,-0.0541 1.95861,-0.0247 0.051,0.0516 -2.04057,3.53639 -3.77368,6.28745 l -0.84188,1.33637 v 2.76892 2.76892 h -1.72031 -1.72031 z m 9.29862,2.56041 c -0.0413,-0.10761 -0.0567,-3.06852 -0.0342,-6.57981 l 0.0409,-6.38417 3.55318,0.0166 c 4.01239,0.0188 4.50898,0.11485 5.47715,1.0598 0.77165,0.75315 1.13798,1.73486 1.12409,3.01247 -0.014,1.28976 -0.27863,2.07645 -0.94748,2.8168 -0.84716,0.93769 -1.86249,1.28829 -3.88962,1.3431 l -1.72031,0.0465 -0.0431,2.43215 -0.0431,2.43216 h -1.72125 c -1.23344,0 -1.74252,-0.0555 -1.79632,-0.19564 z m 6.1165,-7.82793 c 0.32213,-0.27708 0.42291,-0.51162 0.43611,-1.01489 0.0264,-1.00644 -0.37239,-1.31056 -1.84212,-1.40489 l -1.18498,-0.076 v 1.42809 1.42809 h 1.08603 c 0.90834,0 1.15456,-0.0589 1.50496,-0.36036 z m 8.98201,3.04351 v -4.98005 l -1.88854,0.0146 -1.88854,0.0146 -6.7e-4,-1.61071 -6.7e-4,-1.61071 5.56439,-0.0314 5.56439,-0.0314 3e-5,1.69241 c 3e-5,1.65928 -0.007,1.69184 -0.35185,1.6639 -0.19353,-0.0157 -1.03805,-0.0207 -1.8767,-0.0112 l -1.52482,0.0173 v 4.92634 4.92635 h -1.79851 -1.79851 z m 9.22895,4.86276 c 0.001,-0.0645 -0.0309,-3.02032 -0.0709,-6.56846 l -0.0727,-6.45116 h 1.79123 1.79124 v 6.56846 6.56846 h -1.72031 c -0.94618,0 -1.71949,-0.0528 -1.71849,-0.1173 z m 20.01602,-6.49026 -3.2e-4,-6.60756 1.69363,0.0484 1.69362,0.0484 2.25559,3.61442 2.25559,3.61442 0.042,-3.71937 0.042,-3.71937 0.34901,0.0935 c 0.19195,0.0515 0.89442,0.0945 1.56104,0.0957 l 1.21204,0.002 v 6.57393 6.57393 l -1.60302,-0.0446 -1.60301,-0.0446 -2.26769,-3.62072 -2.26768,-3.62071 -0.0419,3.65981 -0.0419,3.65982 h -1.63929 -1.63928 z m -25.56976,-14.67093 c -1.27649,-0.17222 -3.0141,-0.67031 -3.9079,-1.12021 -1.8813,-0.94698 -3.52336,-3.09764 -4.04364,-5.29608 l -0.0957,-0.40439 2.92888,-0.41682 c 3.49613,-0.49755 3.63216,-0.5029 3.63417,-0.14283 0.003,0.50208 0.72962,1.84525 1.22328,2.26064 0.69504,0.58483 1.46285,0.7924 2.67728,0.72378 1.22505,-0.0692 1.95961,-0.47148 2.59165,-1.41923 0.81939,-1.22868 0.91157,-3.47657 0.20102,-4.9021 -0.52651,-1.05631 -1.37343,-1.62969 -2.5653,-1.73675 -1.26552,-0.11368 -2.14399,0.15792 -2.96827,0.9177 l -0.68716,0.63341 -2.93477,-0.35512 c -1.61413,-0.19532 -2.9503,-0.36541 -2.96926,-0.37798 -0.0473,-0.0314 0.63233,-5.0096 1.20487,-8.82517 0.25945,-1.72906 0.47172,-3.35512 0.47172,-3.61346 v -0.46973 h 8.44517 8.44516 v 2.73035 2.73034 l -5.73701,0.009 c -3.15535,0.005 -5.75875,0.0309 -5.78532,0.0575 -0.0266,0.0266 -0.15659,0.67637 -0.28892,1.44399 -0.13233,0.76762 -0.28174,1.52947 -0.33201,1.69301 -0.0749,0.24363 -0.0387,0.27432 0.20033,0.16987 3.86243,-1.68777 8.20021,-1.15348 10.66762,1.31392 2.51666,2.51667 2.89479,7.2451 0.83432,10.43304 -1.18488,1.83325 -3.02726,3.05563 -5.51167,3.6569 -1.54994,0.3751 -4.15194,0.51496 -5.69854,0.3063 z m 24.84037,-0.0554 c -3.54064,-0.67583 -5.69613,-2.20732 -7.0687,-5.02238 -0.85425,-1.75203 -1.14318,-3.24783 -1.22997,-6.36777 -0.14346,-5.15724 0.77105,-8.46789 3.00524,-10.8793 2.16848,-2.34048 5.90971,-3.42487 9.59737,-2.78177 3.23033,0.56335 5.47239,2.28099 6.33318,4.85184 0.41019,1.22507 0.38366,1.28302 -0.64119,1.40119 -0.49459,0.057 -1.74377,0.23878 -2.77596,0.4039 -3.13712,0.50185 -2.89451,0.53754 -3.15347,-0.46394 -0.53732,-2.07804 -2.51598,-2.64596 -4.01076,-1.15118 -0.7007,0.70069 -1.13017,1.80612 -1.4372,3.69919 -0.31828,1.96239 -0.31662,1.97085 0.27356,1.40086 1.16846,-1.12847 3.62389,-1.87274 5.60091,-1.69769 3.69123,0.32681 6.33583,2.69458 6.97442,6.24432 0.70147,3.89932 -0.9153,7.66899 -3.99261,9.30918 -1.92557,1.02632 -5.19975,1.4878 -7.47482,1.05355 z m 3.43493,-4.52566 c 0.64536,-0.26964 1.42434,-1.1549 1.69452,-1.92568 0.27931,-0.79686 0.27527,-3.10598 -0.007,-3.80591 -0.72204,-1.79254 -2.25212,-2.54343 -4.12366,-2.0237 -0.73122,0.20307 -1.55943,0.9128 -1.89818,1.62667 -1.03659,2.18446 -0.34477,5.25971 1.35704,6.03222 0.78551,0.35657 2.24144,0.40372 2.97695,0.0964 z m -59.71435,3.22184 c 0.46878,-3.83387 2.83617,-6.86142 9.02527,-11.54201 3.10864,-2.35096 4.03774,-3.47781 4.03774,-4.89718 0,-0.76802 -0.26111,-1.33633 -0.8853,-1.92691 -1.13217,-1.07121 -3.07956,-1.00834 -4.13923,0.13364 -0.54328,0.58547 -0.6872,0.89277 -0.92879,1.98316 l -0.20266,0.91471 -0.55812,-0.0825 c -0.30697,-0.0454 -1.77212,-0.20743 -3.25589,-0.3601 l -2.69776,-0.2776 v -0.42961 c 0,-0.78737 0.3405,-2.0762 0.81368,-3.07986 0.91268,-1.93589 2.89899,-3.42206 5.40543,-4.04436 1.63943,-0.40705 5.67694,-0.36662 7.26133,0.0727 1.76434,0.48922 2.85089,1.05876 3.8143,1.99934 2.06405,2.01516 2.49032,5.31608 1.05559,8.17417 -0.81211,1.6178 -2.14316,2.97335 -5.59199,5.69493 -1.64111,1.29505 -3.2286,2.55597 -3.52775,2.80203 l -0.54391,0.44739 h 5.43116 5.43115 v 2.65866 2.65866 h -10.0271 -10.0271 z M 48.106215,156.99331 c -0.697972,-1.87084 -2.640207,-7.09629 -4.316078,-11.6121 -1.67587,-4.51582 -3.755339,-10.09602 -4.621042,-12.40045 -0.865702,-2.30443 -1.574004,-4.22219 -1.574004,-4.26168 0,-0.0395 2.214142,-0.0718 4.920316,-0.0718 h 4.920317 l 0.151604,-0.58647 c 0.08338,-0.32256 0.450859,-1.94122 0.816615,-3.59702 l 0.665011,-3.01054 h 5.054109 c 2.77976,0 5.057171,0.0176 5.060914,0.0391 0.0037,0.0215 0.410379,1.62256 0.903637,3.55791 l 0.896831,3.51882 5.311905,0.0412 c 2.921548,0.0227 5.394304,0.01 5.495014,-0.0291 0.130894,-0.0502 0.0797,-0.39646 -0.179536,-1.21416 -0.604182,-1.90578 -3.526531,-11.39664 -5.552955,-18.03422 -1.050405,-3.44062 -2.629121,-8.5781 -3.508254,-11.416608 l -1.598425,-5.16093 -6.781802,-0.0408 c -3.729991,-0.0224 -6.836617,0.014 -6.903613,0.081 -0.067,0.067 -0.363342,0.92986 -0.658547,1.91748 -1.329099,4.44655 -3.064888,10.328688 -5.02956,17.043878 -1.170204,3.99973 -2.43103,8.29268 -2.801836,9.53991 -0.370805,1.24722 -0.90529,3.05941 -1.187744,4.02709 -0.282453,0.96767 -0.561604,1.75941 -0.620336,1.75941 -0.05873,0 -0.781513,-1.84738 -1.606182,-4.10529 -0.824668,-2.25791 -2.567313,-6.99072 -3.872543,-10.51735 -1.305231,-3.52664 -2.429512,-6.58801 -2.498402,-6.80305 -0.06889,-0.21504 -1.011537,-2.77143 -2.094769,-5.680868 l -1.969512,-5.28982 v -13.34739 -13.34739 l 0.977449,-0.0924 c 1.272121,-0.12031 8.463259,-0.64791 12.941429,-0.94947 3.574605,-0.24072 7.356575,-0.5268 12.433155,-0.94047 1.54828,-0.12617 4.363334,-0.3359 6.255676,-0.46607 1.892342,-0.13017 5.375971,-0.37915 7.741399,-0.5533 2.365427,-0.17415 8.206665,-0.59567 12.980526,-0.93673 4.773862,-0.34105 11.529989,-0.83155 15.013619,-1.08999 3.48363,-0.25844 8.797049,-0.64668 11.807599,-0.86275 11.35365,-0.81486 19.66905,-1.43103 28.54152,-2.11493 3.31159,-0.25527 6.33778,-0.46327 6.72485,-0.46224 l 0.70376,0.002 2.6885,6.293 c 1.47867,3.46116 3.40347,7.98204 4.27734,10.04642 0.87387,2.06437 2.45481,5.79432 3.51321,8.28877 1.05839,2.49445 2.57321,6.08364 3.36626,7.97598 0.79304,1.89234 1.99366,4.73503 2.66802,6.31709 l 1.22613,2.876468 -2.07745,2.44085 c -7.75495,9.11155 -13.69248,17.75871 -20.80963,30.30623 l -1.5237,2.68627 -1.04331,0.30844 c -0.57382,0.16965 -1.60633,0.46488 -2.29445,0.65606 -0.68812,0.19119 -1.77619,0.49919 -2.41792,0.68444 l -1.16679,0.33682 1.0949,1.169 c 0.6022,0.64294 1.72139,1.87276 2.4871,2.73291 0.76571,0.86016 1.43489,1.58266 1.48707,1.60557 0.0522,0.0229 0.33773,-0.46498 0.63458,-1.08419 2.33871,-4.87845 6.67029,-12.66049 9.7284,-17.47789 3.454,-5.44103 8.39274,-12.3662 12.05404,-16.90233 5.3428,-6.61941 8.00857,-9.702438 14.17263,-16.390988 l 3.19863,-3.47078 h 6.38038 6.38038 v 2.25448 2.25448 l -1.53076,1.61622 c -1.28034,1.35182 -4.84158,5.244548 -7.05848,7.715498 -5.49171,6.12104 -11.49654,13.66698 -15.76597,19.81223 -5.95126,8.56602 -11.6332,18.32493 -18.53492,31.83433 l -0.9778,1.91395 -8.28877,-0.002 -8.28877,-0.002 -4.71598,-5.66536 c -2.5938,-3.11595 -5.17361,-6.2007 -5.73292,-6.855 l -1.01692,-1.18964 -1.8521,0.53448 c -1.01865,0.29397 -3.22443,0.91453 -4.90173,1.37903 -1.67731,0.46451 -4.03491,1.1219 -5.23913,1.46087 -1.204219,0.33898 -5.989818,1.68309 -10.634648,2.98692 -4.644845,1.30382 -10.169387,2.85622 -12.276769,3.44977 -17.407745,4.90293 -28.459984,7.97281 -28.703875,7.97281 -0.09782,0 -0.748921,-1.53069 -1.446892,-3.40152 z m 73.898395,-28.44518 c 5.60531,-1.00783 9.26284,-4.06013 10.37572,-8.6588 0.28398,-1.17346 0.24245,-3.60297 -0.0827,-4.83698 -0.38397,-1.45732 -0.89538,-2.3647 -1.9958,-3.54105 -1.67597,-1.79162 -3.87985,-3.03304 -7.47317,-4.20957 -2.51201,-0.82248 -5.26903,-1.92044 -5.94415,-2.36721 -1.7847,-1.18107 -1.86944,-3.25086 -0.17389,-4.24763 0.7023,-0.41286 0.79032,-0.42471 3.14659,-0.42379 2.63932,0.001 3.85268,0.19232 6.33387,0.99851 1.52731,0.49625 3.3645,1.31477 4.41807,1.96836 l 0.66467,0.41233 -0.011,-3.723168 c -0.006,-2.04774 -0.0588,-3.83899 -0.1173,-3.98055 -0.19096,-0.46236 -1.64384,-1.53342 -2.92135,-2.15362 -1.60668,-0.78001 -3.46903,-1.36025 -5.37113,-1.67345 -1.9927,-0.32811 -6.06973,-0.20953 -8.00754,0.2329 -4.14922,0.94734 -7.23117,3.12391 -8.73429,6.16843 -0.90426,1.831518 -1.15706,3.073728 -1.07214,5.268128 0.10569,2.73109 0.83485,4.47399 2.67415,6.39192 1.73782,1.81213 3.72654,2.7753 8.5909,4.16068 3.44714,0.98176 4.78658,1.5218 5.646,2.27638 0.83322,0.73158 1.08476,1.2981 0.99431,2.2394 -0.0642,0.66815 -0.16875,0.87199 -0.70276,1.3701 -0.86829,0.80994 -1.87076,1.07741 -4.03807,1.07741 -4.1022,0 -8.50171,-1.49234 -11.37927,-3.85992 -0.24382,-0.20062 -0.50773,-0.32494 -0.58647,-0.27628 -0.15893,0.0982 -0.1655,7.06943 -0.007,7.79621 0.0802,0.36841 0.34937,0.59757 1.42812,1.21574 4.08017,2.33806 9.53271,3.24094 14.34595,2.37552 z m -21.10712,-3.67678 -0.0419,-3.77593 -7.428609,0.0128 c -4.08574,0.007 -7.692531,-0.027 -8.015089,-0.0757 l -0.58647,-0.0885 v -3.02966 -3.02965 h 7.663199 7.663209 v -3.7534 -3.75341 h -7.663209 -7.663199 l -4e-6,-2.93235 -4e-6,-2.93235 6.998537,0.01 c 3.8492,0.005 7.49118,-0.0193 8.09329,-0.0544 l 1.094749,-0.0639 -0.0439,-4.363628 -0.0439,-4.36363 H 88.026721 75.129145 v 17.985068 17.98507 h 12.905116 12.905109 z m 36.91048,-38.059458 c 2.90928,-0.92396 5.106,-3.2807 5.9033,-6.33331 0.31105,-1.19095 0.23845,-3.51109 -0.14827,-4.73815 -0.88313,-2.80219 -3.11172,-5.01427 -6.03349,-5.98877 -1.00601,-0.33554 -3.51376,-0.37523 -4.76986,-0.0755 -2.28675,0.54567 -4.55402,2.38653 -5.59992,4.54673 -2.25216,4.6516 -0.54882,10.00939 3.88091,12.20729 1.98103,0.98292 4.43793,1.12151 6.76733,0.38171 z m 20.14482,43.217768 c 0.23466,-0.37324 1.53306,-2.30017 2.88532,-4.28205 3.87818,-5.68391 5.31917,-7.71783 5.47575,-7.72888 0.0475,-0.003 0.63857,1.31345 1.3134,2.92625 0.67484,1.61279 1.54009,3.6713 1.92278,4.57446 0.3827,0.90316 0.70656,1.7443 0.71969,1.86919 0.0159,0.15087 -0.23856,0.28817 -0.75808,0.4091 -1.45137,0.33786 -11.41413,2.74646 -11.70106,2.82886 -0.2407,0.0691 -0.21883,-0.0227 0.1422,-0.59693 z M 51.044643,114.25184 c 6.44e-4,-0.36578 3.061425,-13.58428 3.170808,-13.69366 0.03485,-0.0348 0.152707,0.34173 0.261899,0.83685 0.232917,1.05613 2.950289,12.19177 3.07091,12.58442 0.07548,0.2457 -0.187217,0.27129 -3.210781,0.31278 -1.811143,0.0249 -3.292918,0.007 -3.292836,-0.0404 z"
       id="path1" /></g></svg>
