<?xml version="1.0" encoding="UTF-8" standalone="no"?>
<!-- Created with Inkscape (http://www.inkscape.org/) -->

<svg
   width="141.50105mm"
   height="93.774467mm"
   viewBox="0 0 141.50105 93.774467"
   version="1.1"
   id="svg1"
   xml:space="preserve"
   xmlns="http://www.w3.org/2000/svg"
   xmlns:svg="http://www.w3.org/2000/svg"><defs
     id="defs1" /><g
     id="layer1"
     transform="translate(-42.284818,-80.007543)"><path
       style="fill:#000000"
       d="m 42.284818,146.00077 v -27.78125 h 3.014803 3.014804 l 0.123729,-6.15156 c 0.1386,-6.89089 0.377694,-8.16696 2.298699,-12.26842 2.524228,-5.38937 6.889248,-9.78763 12.317755,-12.41156 4.972905,-2.40371 8.643329,-3.16316 14.2875,-2.95624 4.277523,0.15682 6.808291,0.70385 10.379737,2.24358 6.273807,2.70479 11.439164,7.79541 14.159505,13.95462 1.45345,3.29083 2.03868,7.35475 2.04719,14.21615 l 0.004,3.37343 h 3.04271 3.04271 v 9.38551 9.3855 l -2.84427,3.29762 c -1.56435,1.81368 -2.98028,3.30521 -3.1465,3.31449 -0.16623,0.009 -2.1903,-2.00791 -4.497922,-4.48267 -5.00623,-5.3688 -5.896819,-5.95034 -9.088948,-5.93495 -4.162215,0.0201 -7.189501,2.5567 -7.238981,6.06571 -0.02682,1.90203 0.773454,3.29549 3.572705,6.22088 1.32284,1.38245 3.959165,4.18041 5.8585,6.21771 1.899335,2.03729 4.35999,4.65666 5.468123,5.82083 1.108132,1.16417 2.989493,3.1464 4.180803,4.40496 l 2.16601,2.2883 2.58681,-2.9983 c 1.42274,-1.64906 2.67865,-3.00622 2.79092,-3.0159 0.23032,-0.0199 0.24785,14.07466 0.0186,14.9975 l -0.14785,0.59531 H 75.990508 42.284818 Z m 37.835415,12.40393 c 0,-0.16284 -0.549957,-3.13516 -1.222126,-6.60516 l -1.222126,-6.30908 0.834754,-0.7024 c 2.209916,-1.85952 2.257505,-4.74391 0.111765,-6.7741 -2.965949,-2.80623 -8.29185,-0.74095 -8.29185,3.21542 0,1.43976 0.538161,2.65721 1.551523,3.5099 0.45635,0.38399 0.829727,0.87436 0.829727,1.0897 0,0.21535 -0.535777,3.1103 -1.190615,6.43323 -0.654838,3.32293 -1.19062,6.13099 -1.190625,6.24013 -6e-6,0.10914 2.202646,0.19843 4.894781,0.19843 3.43385,0 4.894792,-0.0884 4.894792,-0.29607 z M 91.227152,112.994 c -0.0051,-4.78113 -0.05777,-5.37334 -0.619256,-6.96382 -0.766436,-2.17103 -2.408234,-4.61555 -4.061695,-6.04758 -2.506601,-2.17091 -7.161799,-3.97036 -10.305297,-3.98348 -3.262147,-0.0136 -7.75179,1.58694 -10.255889,3.65621 -1.678089,1.38669 -3.426056,3.76786 -4.304782,5.8642 -0.691453,1.64956 -0.724972,1.94397 -0.820857,7.20989 l -0.09997,5.4901 H 75.996068 91.23273 Z m 12.520288,48.25087 c -0.11637,-0.20147 -2.00678,-2.2553 -4.20091,-4.56406 -7.629614,-8.02822 -14.268024,-15.22574 -14.446764,-15.66352 -0.09891,-0.24226 -0.188209,-1.02939 -0.198437,-1.74917 -0.04603,-3.23954 3.744411,-5.42723 7.491331,-4.32369 1.201946,0.354 3.079988,2.11129 8.47064,7.92599 l 3.10749,3.35193 2.1751,-2.42589 c 1.1963,-1.33424 4.37167,-4.98574 7.05637,-8.11444 2.6847,-3.12869 4.94602,-5.74807 5.02516,-5.82083 0.14903,-0.13701 4.91681,-5.58259 7.30815,-8.34709 0.74922,-0.86613 2.59956,-3.00353 4.11186,-4.74978 3.02604,-3.49415 4.18876,-4.32251 6.38544,-4.54923 1.10066,-0.1136 1.69771,-0.0191 2.71026,0.42875 2.27308,1.00549 3.29032,2.33737 3.28861,4.30577 -0.001,1.34713 -0.47314,2.18911 -2.42301,4.32258 -0.79299,0.86765 -4.47129,5.08203 -8.174,9.3653 -3.70271,4.28326 -9.27218,10.71264 -12.37659,14.2875 -3.10442,3.57486 -7.62166,8.7917 -10.03833,11.59297 -2.41667,2.80128 -4.54399,5.09323 -4.72737,5.09323 -0.18338,0 -0.42863,-0.16484 -0.545,-0.36632 z m 67.65404,-52.56592 c -3.23623,-0.37498 -6.25621,-1.9377 -7.60098,-3.93321 -0.64879,-0.96273 -1.05169,-2.17442 -1.30429,-3.92257 l -0.16249,-1.12448 h 2.78464 2.78464 l 0.18396,0.99219 c 0.45889,2.47515 2.27537,3.77031 5.28789,3.77031 3.10449,0 4.64121,-1.16424 4.64121,-3.51623 0,-1.19616 -0.101,-1.42429 -1.01598,-2.29468 -0.67609,-0.64315 -1.71614,-1.21382 -3.10885,-1.70582 -6.01038,-2.12324 -8.14589,-3.25054 -9.48598,-5.00749 -1.45823,-1.91184 -1.72414,-5.32541 -0.58389,-7.49576 0.65892,-1.2542 2.59665,-2.93242 4.27283,-3.7006 1.46996,-0.67367 1.84217,-0.72793 5.02708,-0.73286 2.96758,-0.005 3.6466,0.0773 4.94814,0.59662 2.97953,1.18887 5.16982,3.91072 5.30663,6.59449 l 0.064,1.25504 -2.6548,0.0748 -2.65479,0.0748 -0.32781,-1.22564 c -0.5454,-2.03918 -2.3054,-3.28351 -4.65065,-3.28805 -3.08299,-0.006 -5.28332,2.60125 -4.08852,4.84457 0.59447,1.11617 2.38188,2.11357 5.77761,3.22399 4.90368,1.60352 7.78507,3.77579 8.57405,6.46393 0.71392,2.43243 0.38841,4.82171 -0.90424,6.63707 -1.83845,2.58186 -6.35122,3.97096 -11.10939,3.41964 z m -46.64619,-0.41672 c -0.10178,-0.10179 -0.18506,-5.46032 -0.18506,-11.90785 V 84.63159 l -3.9026,-0.0732 -3.90261,-0.0732 -0.081,-1.57647 c -0.0446,-0.86707 -0.0125,-1.84933 0.0712,-2.18282 l 0.15218,-0.60633 h 10.71058 10.71058 v 2.24895 2.24896 h -3.96602 -3.96603 l -0.0689,11.84011 -0.0689,11.8401 -2.65921,0.0748 c -1.46256,0.0412 -2.74248,-0.008 -2.84427,-0.11024 z M 141.50356,94.27821 V 80.11953 h 2.77543 2.77543 l 0.0688,11.97239 0.0688,11.9724 6.29489,0.071 6.2949,0.071 -0.0772,2.0457 -0.0772,2.04571 -9.06198,0.0696 -9.06198,0.0696 z"
       id="path1" /></g></svg>
