<?xml version="1.0" encoding="UTF-8" standalone="no"?>
<!-- Created with Inkscape (http://www.inkscape.org/) -->

<svg
   width="183.53024mm"
   height="39.522556mm"
   viewBox="0 0 183.53024 39.522556"
   version="1.1"
   id="svg1"
   xml:space="preserve"
   xmlns="http://www.w3.org/2000/svg"
   xmlns:svg="http://www.w3.org/2000/svg"><defs
     id="defs1" /><g
     id="layer1"
     transform="translate(-14.276054,-145.89912)"><g
       id="g2"
       transform="translate(2.9132793,-93.422502)"
       style="fill:#0c261b;fill-opacity:1"><path
         style="fill:#0c261b;fill-opacity:1"
         d="m 11.50227,240.15499 c 0.2977,-0.7532 0.86884,-0.83337 5.93685,-0.83337 5.06802,0 5.63916,0.0802 5.93685,0.83337 0.0681,0.17224 0.12935,2.58289 0.13617,5.357 0.0114,4.65325 0.0374,5.06645 0.33497,5.33577 0.2737,0.2477 0.77988,0.29192 3.34139,0.29192 2.9196,0 3.02784,-0.0129 3.2934,-0.39203 0.23335,-0.33315 0.27458,-1.16795 0.27458,-5.55884 0,-5.16682 0,-5.16682 0.57327,-5.51634 0.55094,-0.33592 0.91127,-0.34955 9.25443,-0.35019 7.69991,-5.8e-4 8.75007,0.0322 9.29077,0.29004 0.33528,0.15989 0.65439,0.45754 0.70913,0.66146 0.0547,0.20392 0.10061,2.6564 0.10194,5.44996 0.002,5.0792 0.002,5.0792 -0.43055,5.51215 -0.43295,0.43295 -0.43295,0.43295 -9.51879,0.43295 -8.80238,0 -9.09154,0.0106 -9.26843,0.34119 -0.10522,0.1966 -0.1826,1.6052 -0.1826,3.32405 0,2.66574 0.0343,3.0139 0.32257,3.27479 0.27519,0.24904 0.79235,0.29192 3.52091,0.29192 4.21502,0 3.91763,-0.30216 3.91763,3.98041 0,2.41726 0.0565,3.25526 0.2293,3.39864 0.14942,0.124 2.0523,0.20834 5.46201,0.24208 4.74693,0.047 5.26193,0.081 5.54744,0.36677 0.28843,0.28866 0.31472,0.76957 0.31472,5.75685 0,5.44187 0,5.44187 -0.44097,5.80866 -0.42414,0.3528 -0.6385,0.36702 -5.61777,0.37267 -6.81373,0.008 -6.20028,0.61709 -6.20028,-6.15906 0,-4.68703 -0.0243,-5.0913 -0.32257,-5.36121 -0.27291,-0.24698 -0.77375,-0.29192 -3.2532,-0.29192 -2.82846,0 -2.94019,0.0137 -3.2052,0.39202 -0.23285,0.33244 -0.27459,1.15225 -0.27459,5.39343 0,5.00141 0,5.00141 -0.52025,5.52165 -0.52024,0.52025 -0.52024,0.52025 -9.607,0.47151 -8.45028,-0.0453 -9.10881,-0.0708 -9.40163,-0.36373 -0.28871,-0.28881 -0.31487,-0.77 -0.31487,-5.79232 0,-5.47734 0,-5.47734 0.41642,-5.81453 0.39792,-0.32222 0.81878,-0.3372 9.47469,-0.3372 8.77513,0 9.06399,-0.0107 9.24088,-0.34118 0.10479,-0.1958 0.18259,-1.58629 0.18259,-3.26319 0,-3.89739 0.29445,-3.62757 -3.95874,-3.62757 -3.1618,0 -3.26091,-0.011 -3.52778,-0.39203 -0.2229,-0.31823 -0.27459,-0.96788 -0.27459,-3.45118 0,-1.77143 -0.0769,-3.20277 -0.18259,-3.40033 -0.1742,-0.32549 -0.4221,-0.34119 -5.38788,-0.34119 -5.20528,0 -5.20528,0 -5.63824,-0.43295 -0.43295,-0.43295 -0.43295,-0.43295 -0.42056,-5.60035 0.007,-2.84206 0.0681,-5.30831 0.13617,-5.48055 z"
         id="path2" /><path
         style="font-weight:bold;font-size:64px;line-height:0.9;font-family:'Creato Display';-inkscape-font-specification:'Creato Display Bold';text-align:end;letter-spacing:-2.41732px;word-spacing:0px;direction:rtl;text-anchor:end;white-space:pre;fill-rule:evenodd;stroke-width:3.77953;stroke-linejoin:round"
         d="m 264.00103,953.41944 c 12.672,0 18.816,-5.696 18.816,-14.208 0,-7.872 -5.12,-11.392 -14.4,-12.736 l -5.824,-0.832 c -6.08,-0.832 -7.552,-2.432 -7.552,-5.568 0,-4.16 2.688,-6.976 8.768,-6.976 6.08,0 9.024,2.752 9.6,8.128 h 8.256 c 0,-8.896 -5.824,-14.656 -17.664,-14.656 -11.84,0 -17.664,5.824 -17.664,14.016 0,7.424 3.712,10.752 13.248,12.096 l 5.824,0.832 c 6.976,1.024 8.704,3.072 8.704,6.208 0,4.224 -3.008,7.168 -9.92,7.168 -7.104,0 -9.856,-2.752 -10.56,-8.768 h -8.448 c 0,9.728 6.144,15.296 18.816,15.296 z m 36.62269,0 c 8.896,0 13.952,-4.288 15.36,-11.072 h -7.616 c -0.96,3.392 -3.648,5.44 -7.744,5.44 -5.056,0 -8.256,-3.072 -8.512,-9.792 h 24.448 c 0.064,-0.768 0.128,-1.408 0.128,-2.112 0,-9.728 -5.76,-16.768 -16.448,-16.768 -10.624,0 -16.384,6.976 -16.384,17.152 0,10.432 6.016,17.152 16.768,17.152 z m -0.384,-28.672 c 4.544,0 7.488,2.624 8.192,7.872 h -16.32 c 0.704,-5.248 3.584,-7.872 8.128,-7.872 z m 34.06265,28.672 c 10.304,0 15.552,-6.336 15.552,-13.44 h -7.744 c -0.64,4.928 -3.456,7.168 -7.808,7.168 -5.248,0 -8.32,-3.584 -8.32,-10.88 0,-7.296 3.072,-10.88 8.32,-10.88 4.992,0 7.232,3.008 7.808,6.912 h 7.744 c 0,-6.464 -4.864,-13.184 -15.552,-13.184 -10.56,0 -16.576,6.784 -16.576,17.152 0,10.432 6.016,17.152 16.576,17.152 z m 28.49465,0 c 5.44,0 8.384,-2.496 10.176,-6.016 v 5.376 h 7.872 v -33.024 h -8.256 v 18.432 c 0,5.376 -2.816,8.512 -7.168,8.512 -4.032,0 -5.632,-2.24 -5.632,-6.72 v -20.224 h -8.256 v 21.824 c 0,8 3.712,11.84 11.264,11.84 z m 29.90268,-0.64 v -15.36 c 0,-6.72 3.392,-10.496 8.448,-10.496 l 3.392,0.064 v -7.232 c -0.768,-0.192 -2.112,-0.448 -3.008,-0.448 -4.608,0 -7.488,1.984 -9.216,7.808 v -7.36 h -7.872 v 33.024 z m 22.79871,0.64 c 5.632,0 8.96,-1.984 10.816,-5.76 0,2.56 0.448,3.904 1.408,5.12 h 7.488 c -0.64,-1.088 -1.024,-3.968 -1.024,-8.448 v -14.144 c 0,-6.72 -4.224,-11.072 -14.4,-11.072 -10.176,0 -14.4,4.352 -14.4,11.072 h 8.192 c 0.32,-3.52 2.432,-5.184 6.272,-5.184 4.096,0 6.08,1.92 6.08,5.184 0,1.728 -0.96,2.624 -4.288,2.944 l -6.72,0.576 c -8.32,0.64 -11.328,4.672 -11.328,9.728 0,6.08 4.16,9.984 11.904,9.984 z m 2.432,-5.632 c -4.224,0 -6.08,-1.984 -6.08,-4.928 0,-2.368 1.664,-4.096 5.824,-4.48 l 3.904,-0.32 c 2.24,-0.192 3.776,-0.576 4.352,-1.28 v 2.304 c 0,4.8 -2.88,8.704 -8,8.704 z"
         id="text2"
         transform="matrix(0.70268966,0,0,0.70268966,-110.92483,-394.41528)"
         aria-label="Secura" /></g></g></svg>
